<?xml version="1.0" encoding="UTF-8" standalone="no"?>
<!-- Created with Inkscape (http://www.inkscape.org/) -->

<svg
   width="640"
   height="480"
   viewBox="0 0 169.33333 127"
   version="1.1"
   id="svg1"
   xmlns:xlink="http://www.w3.org/1999/xlink"
   xmlns="http://www.w3.org/2000/svg"
   xmlns:svg="http://www.w3.org/2000/svg">
  <defs
     id="defs1">
    <linearGradient
       id="linearGradient9">
      <stop
         style="stop-color:#00ff00;stop-opacity:1"
         offset="0"
         id="stop8" />
      <stop
         style="stop-color:#008000;stop-opacity:1"
         offset="1"
         id="stop9" />
    </linearGradient>
    <linearGradient
       id="linearGradient3">
      <stop
         style="stop-color:#000080;stop-opacity:1"
         offset="0"
         id="stop3" />
      <stop
         style="stop-color:#008080;stop-opacity:1"
         offset="1"
         id="stop4" />
    </linearGradient>
    <linearGradient
       xlink:href="#linearGradient3"
       id="linearGradient4"
       x1="53.123371"
       y1="19.223633"
       x2="136.01237"
       y2="119.47591"
       gradientUnits="userSpaceOnUse" />
    <linearGradient
       xlink:href="#linearGradient9"
       id="linearGradient8"
       x1="108.47916"
       y1="70.379166"
       x2="-8.4666662"
       y2="143.66875"
       gradientUnits="userSpaceOnUse" />
  </defs>
  <g
     id="layer1">
    <rect
       style="fill:url(#linearGradient4);fill-opacity:1;stroke-width:5.29167;-inkscape-stroke:none"
       id="rect2"
       width="170.94563"
       height="128.98438"
       x="-0.82682288"
       y="-0.62011719"
       ry="3.5527137e-15" />
    <path
       style="fill:#e6e6e6;stroke-width:5.29167;-inkscape-stroke:none"
       d="m 126.91732,17.776692 c 0,0 22.53092,-23.3577466 36.79362,8.061524 14.26269,31.41927 -29.35222,11.575521 -29.35222,11.575521 0,0 -54.156898,-0.413412 -36.380206,-11.368815 17.776696,-10.955404 28.938806,-8.26823 28.938806,-8.26823 z"
       id="path6" />
    <path
       style="fill:#ffffff;stroke-width:5.29167;-inkscape-stroke:none"
       d="m 28.52539,19.430338 c 0,0 34.313151,-19.01692655 46.095377,8.268229 11.782227,27.285156 -44.855142,12.402344 -44.855142,12.402344 0,0 -29.97233073,-9.301758 -19.223633,-18.810221 C 21.29069,11.782226 28.52539,19.430338 28.52539,19.430338 Z"
       id="path7" />
    <path
       style="fill:url(#linearGradient8);fill-opacity:1;stroke-width:5.29167;-inkscape-stroke:none"
       d="M -0.28732097,85.83662 C 47.967306,60.887451 160.63126,80.191732 169.34056,127.00104 l -169.5333031,0.0692 z"
       id="path8" />
  </g>
</svg>
